<svg width="34" height="33" viewBox="0 0 34 33" fill="none" xmlns="http://www.w3.org/2000/svg">
<path d="M10.375 26.25C8.5875 26.25 7.14125 27.7125 7.14125 29.5C7.14125 31.2875 8.5875 32.75 10.375 32.75C12.1625 32.75 13.625 31.2875 13.625 29.5C13.625 27.7125 12.1625 26.25 10.375 26.25ZM26.625 26.25C24.8375 26.25 23.3913 27.7125 23.3913 29.5C23.3913 31.2875 24.8375 32.75 26.625 32.75C28.4125 32.75 29.875 31.2875 29.875 29.5C29.875 27.7125 28.4125 26.25 26.625 26.25ZM24.2688 18.125C25.4875 18.125 26.56 17.4587 27.1125 16.4513L32.93 5.905C33.5312 4.8325 32.7513 3.5 31.5163 3.5H7.46625L5.93875 0.25H0.625V3.5H3.875L9.725 15.8337L7.53125 19.7987C6.345 21.9762 7.905 24.625 10.375 24.625H29.875V21.375H10.375L12.1625 18.125H24.2688ZM9.01 6.75H28.7537L24.2688 14.875H12.8612L9.01 6.75Z" fill="#323232"/>
</svg>
