<svg width="38" height="30" viewBox="0 0 38 30" fill="none" xmlns="http://www.w3.org/2000/svg">
<path d="M16.875 24.375H20.625V22.5H22.5C23.5312 22.5 24.375 21.6562 24.375 20.625V15C24.375 13.9688 23.5312 13.125 22.5 13.125H16.875V11.25H24.375V7.5H20.625V5.625H16.875V7.5H15C13.9688 7.5 13.125 8.34375 13.125 9.375V15C13.125 16.0312 13.9688 16.875 15 16.875H20.625V18.75H13.125V22.5H16.875V24.375ZM33.75 0H3.75C1.66875 0 0.01875 1.66875 0.01875 3.75L0 26.25C0 28.3312 1.66875 30 3.75 30H33.75C35.8312 30 37.5 28.3312 37.5 26.25V3.75C37.5 1.66875 35.8312 0 33.75 0ZM33.75 26.25H3.75V3.75H33.75V26.25Z" fill="#323232"/>
</svg>
