<svg width="44" height="44" viewBox="0 0 44 44" fill="none" xmlns="http://www.w3.org/2000/svg">
<g clip-path="url(#clip0_4_129)">
<path d="M22 11.36C23.9507 11.36 25.5467 12.956 25.5467 14.9066C25.5467 16.8573 23.9507 18.4533 22 18.4533C20.0494 18.4533 18.4534 16.8573 18.4534 14.9066C18.4534 12.956 20.0494 11.36 22 11.36ZM22 29.0933C26.788 29.0933 32.2854 31.3809 32.64 32.64H11.36C11.7679 31.3632 17.2298 29.0933 22 29.0933ZM22 7.81329C18.081 7.81329 14.9067 10.9876 14.9067 14.9066C14.9067 18.8257 18.081 22 22 22C25.9191 22 29.0934 18.8257 29.0934 14.9066C29.0934 10.9876 25.9191 7.81329 22 7.81329ZM22 25.5466C17.2652 25.5466 7.81335 27.9229 7.81335 32.64V36.1866H36.1867V32.64C36.1867 27.9229 26.7348 25.5466 22 25.5466Z" fill="#0A1C14"/>
</g>
<defs>
<clipPath id="clip0_4_129">
<rect width="42.56" height="42.56" fill="white" transform="translate(0.719971 0.719971)"/>
</clipPath>
</defs>
</svg>
