<svg width="37" height="35" viewBox="0 0 37 35" fill="none" xmlns="http://www.w3.org/2000/svg">
<path d="M34.375 8.65V4.375C34.375 2.3125 32.6875 0.625 30.625 0.625H4.375C2.29375 0.625 0.625 2.3125 0.625 4.375V30.625C0.625 32.6875 2.29375 34.375 4.375 34.375H30.625C32.6875 34.375 34.375 32.6875 34.375 30.625V26.35C35.4813 25.6937 36.25 24.5125 36.25 23.125V11.875C36.25 10.4875 35.4813 9.30625 34.375 8.65ZM32.5 11.875V23.125H19.375V11.875H32.5ZM4.375 30.625V4.375H30.625V8.125H19.375C17.3125 8.125 15.625 9.8125 15.625 11.875V23.125C15.625 25.1875 17.3125 26.875 19.375 26.875H30.625V30.625H4.375Z" fill="#323232"/>
</svg>
